<mxfile host="app.diagrams.net" agent="Mozilla/5.0 (Windows NT 10.0; Win64; x64) AppleWebKit/537.36 (KHTML, like Gecko) Chrome/135.0.0.0 Safari/537.36" version="27.0.3">
  <diagram name="Page-1" id="wu_z-Hz_r7hWqCUZT4Pf">
    <mxGraphModel dx="810" dy="513" grid="1" gridSize="10" guides="1" tooltips="1" connect="1" arrows="1" fold="1" page="1" pageScale="1" pageWidth="850" pageHeight="1100" math="0" shadow="0">
      <root>
        <mxCell id="0" />
        <mxCell id="1" parent="0" />
        <mxCell id="5mHROcMtK9uTaEclbTKY-31" value="" style="endArrow=none;html=1;rounded=0;entryX=0;entryY=0.5;entryDx=0;entryDy=0;" edge="1" parent="1" target="5mHROcMtK9uTaEclbTKY-28">
          <mxGeometry width="50" height="50" relative="1" as="geometry">
            <mxPoint x="130" y="210" as="sourcePoint" />
            <mxPoint x="390" y="195" as="targetPoint" />
          </mxGeometry>
        </mxCell>
        <mxCell id="5mHROcMtK9uTaEclbTKY-1" value="" style="swimlane;startSize=0;" vertex="1" parent="1">
          <mxGeometry x="270" y="85" width="410" height="495" as="geometry" />
        </mxCell>
        <mxCell id="5mHROcMtK9uTaEclbTKY-8" value="create account" style="ellipse;whiteSpace=wrap;html=1;" vertex="1" parent="5mHROcMtK9uTaEclbTKY-1">
          <mxGeometry x="100" y="10" width="120" height="50" as="geometry" />
        </mxCell>
        <mxCell id="5mHROcMtK9uTaEclbTKY-9" value="views properties" style="ellipse;whiteSpace=wrap;html=1;" vertex="1" parent="5mHROcMtK9uTaEclbTKY-1">
          <mxGeometry x="110" y="75" width="120" height="50" as="geometry" />
        </mxCell>
        <mxCell id="5mHROcMtK9uTaEclbTKY-10" value="list properties" style="ellipse;whiteSpace=wrap;html=1;" vertex="1" parent="5mHROcMtK9uTaEclbTKY-1">
          <mxGeometry x="120" y="145" width="120" height="50" as="geometry" />
        </mxCell>
        <mxCell id="5mHROcMtK9uTaEclbTKY-11" value="list properties" style="ellipse;whiteSpace=wrap;html=1;" vertex="1" parent="5mHROcMtK9uTaEclbTKY-1">
          <mxGeometry x="130" y="205" width="120" height="50" as="geometry" />
        </mxCell>
        <mxCell id="5mHROcMtK9uTaEclbTKY-17" value="book property" style="ellipse;whiteSpace=wrap;html=1;" vertex="1" parent="5mHROcMtK9uTaEclbTKY-1">
          <mxGeometry x="150" y="275" width="100" height="35" as="geometry" />
        </mxCell>
        <mxCell id="5mHROcMtK9uTaEclbTKY-18" value="book property" style="ellipse;whiteSpace=wrap;html=1;" vertex="1" parent="5mHROcMtK9uTaEclbTKY-1">
          <mxGeometry x="150" y="335" width="100" height="35" as="geometry" />
        </mxCell>
        <mxCell id="5mHROcMtK9uTaEclbTKY-28" value="send message" style="ellipse;whiteSpace=wrap;html=1;" vertex="1" parent="5mHROcMtK9uTaEclbTKY-1">
          <mxGeometry x="250" y="75" width="120" height="50" as="geometry" />
        </mxCell>
        <mxCell id="5mHROcMtK9uTaEclbTKY-2" value="&lt;span style=&quot;white-space: pre;&quot;&gt;&#x9;&lt;/span&gt;Guest" style="shape=umlActor;verticalLabelPosition=bottom;verticalAlign=top;html=1;outlineConnect=0;" vertex="1" parent="1">
          <mxGeometry x="90" y="90" width="30" height="60" as="geometry" />
        </mxCell>
        <mxCell id="5mHROcMtK9uTaEclbTKY-4" value="Host" style="shape=umlActor;verticalLabelPosition=bottom;verticalAlign=top;html=1;outlineConnect=0;" vertex="1" parent="1">
          <mxGeometry x="90" y="190" width="30" height="60" as="geometry" />
        </mxCell>
        <mxCell id="5mHROcMtK9uTaEclbTKY-5" value="Admin" style="shape=umlActor;verticalLabelPosition=bottom;verticalAlign=top;html=1;outlineConnect=0;" vertex="1" parent="1">
          <mxGeometry x="90" y="290" width="30" height="60" as="geometry" />
        </mxCell>
        <mxCell id="5mHROcMtK9uTaEclbTKY-6" value="paypal" style="shape=umlActor;verticalLabelPosition=bottom;verticalAlign=top;html=1;outlineConnect=0;" vertex="1" parent="1">
          <mxGeometry x="720" y="90" width="30" height="60" as="geometry" />
        </mxCell>
        <mxCell id="5mHROcMtK9uTaEclbTKY-12" value="" style="endArrow=none;html=1;rounded=0;entryX=0;entryY=0.32;entryDx=0;entryDy=0;entryPerimeter=0;exitX=1;exitY=0.3333333333333333;exitDx=0;exitDy=0;exitPerimeter=0;" edge="1" parent="1" source="5mHROcMtK9uTaEclbTKY-4" target="5mHROcMtK9uTaEclbTKY-11">
          <mxGeometry width="50" height="50" relative="1" as="geometry">
            <mxPoint x="390" y="360" as="sourcePoint" />
            <mxPoint x="440" y="310" as="targetPoint" />
          </mxGeometry>
        </mxCell>
        <mxCell id="5mHROcMtK9uTaEclbTKY-13" value="" style="endArrow=none;html=1;rounded=0;entryX=0;entryY=0.5;entryDx=0;entryDy=0;exitX=1;exitY=0.3333333333333333;exitDx=0;exitDy=0;exitPerimeter=0;" edge="1" parent="1" source="5mHROcMtK9uTaEclbTKY-4" target="5mHROcMtK9uTaEclbTKY-10">
          <mxGeometry width="50" height="50" relative="1" as="geometry">
            <mxPoint x="130" y="234" as="sourcePoint" />
            <mxPoint x="410" y="316" as="targetPoint" />
          </mxGeometry>
        </mxCell>
        <mxCell id="5mHROcMtK9uTaEclbTKY-14" value="" style="endArrow=none;html=1;rounded=0;entryX=0;entryY=0.5;entryDx=0;entryDy=0;" edge="1" parent="1" target="5mHROcMtK9uTaEclbTKY-9">
          <mxGeometry width="50" height="50" relative="1" as="geometry">
            <mxPoint x="120" y="210" as="sourcePoint" />
            <mxPoint x="420" y="326" as="targetPoint" />
          </mxGeometry>
        </mxCell>
        <mxCell id="5mHROcMtK9uTaEclbTKY-15" value="" style="endArrow=none;html=1;rounded=0;entryX=0;entryY=0.5;entryDx=0;entryDy=0;exitX=1;exitY=0.3333333333333333;exitDx=0;exitDy=0;exitPerimeter=0;" edge="1" parent="1" source="5mHROcMtK9uTaEclbTKY-2" target="5mHROcMtK9uTaEclbTKY-8">
          <mxGeometry width="50" height="50" relative="1" as="geometry">
            <mxPoint x="150" y="254" as="sourcePoint" />
            <mxPoint x="430" y="336" as="targetPoint" />
          </mxGeometry>
        </mxCell>
        <mxCell id="5mHROcMtK9uTaEclbTKY-16" value="" style="endArrow=none;html=1;rounded=0;entryX=0;entryY=0.5;entryDx=0;entryDy=0;exitX=1;exitY=0.3333333333333333;exitDx=0;exitDy=0;exitPerimeter=0;" edge="1" parent="1" source="5mHROcMtK9uTaEclbTKY-2" target="5mHROcMtK9uTaEclbTKY-9">
          <mxGeometry width="50" height="50" relative="1" as="geometry">
            <mxPoint x="160" y="264" as="sourcePoint" />
            <mxPoint x="440" y="346" as="targetPoint" />
          </mxGeometry>
        </mxCell>
        <mxCell id="5mHROcMtK9uTaEclbTKY-19" value="" style="endArrow=none;html=1;rounded=0;entryX=0;entryY=0.5;entryDx=0;entryDy=0;exitX=1;exitY=0.3333333333333333;exitDx=0;exitDy=0;exitPerimeter=0;" edge="1" parent="1" source="5mHROcMtK9uTaEclbTKY-2" target="5mHROcMtK9uTaEclbTKY-17">
          <mxGeometry width="50" height="50" relative="1" as="geometry">
            <mxPoint x="130" y="110" as="sourcePoint" />
            <mxPoint x="390" y="195" as="targetPoint" />
          </mxGeometry>
        </mxCell>
        <mxCell id="5mHROcMtK9uTaEclbTKY-20" value="" style="endArrow=none;html=1;rounded=0;entryX=0;entryY=0.5;entryDx=0;entryDy=0;exitX=1;exitY=0.3333333333333333;exitDx=0;exitDy=0;exitPerimeter=0;" edge="1" parent="1" source="5mHROcMtK9uTaEclbTKY-4" target="5mHROcMtK9uTaEclbTKY-8">
          <mxGeometry width="50" height="50" relative="1" as="geometry">
            <mxPoint x="140" y="130" as="sourcePoint" />
            <mxPoint x="400" y="205" as="targetPoint" />
          </mxGeometry>
        </mxCell>
        <mxCell id="5mHROcMtK9uTaEclbTKY-21" value="" style="endArrow=none;html=1;rounded=0;entryX=0;entryY=0.5;entryDx=0;entryDy=0;exitX=1;exitY=0.3333333333333333;exitDx=0;exitDy=0;exitPerimeter=0;" edge="1" parent="1" source="5mHROcMtK9uTaEclbTKY-2" target="5mHROcMtK9uTaEclbTKY-18">
          <mxGeometry width="50" height="50" relative="1" as="geometry">
            <mxPoint x="130" y="120" as="sourcePoint" />
            <mxPoint x="430" y="388" as="targetPoint" />
          </mxGeometry>
        </mxCell>
        <mxCell id="5mHROcMtK9uTaEclbTKY-22" value="" style="endArrow=none;html=1;rounded=0;entryX=0;entryY=0.3333333333333333;entryDx=0;entryDy=0;entryPerimeter=0;exitX=1;exitY=0.5;exitDx=0;exitDy=0;" edge="1" parent="1" source="5mHROcMtK9uTaEclbTKY-17" target="5mHROcMtK9uTaEclbTKY-6">
          <mxGeometry width="50" height="50" relative="1" as="geometry">
            <mxPoint x="390" y="360" as="sourcePoint" />
            <mxPoint x="440" y="310" as="targetPoint" />
          </mxGeometry>
        </mxCell>
        <mxCell id="5mHROcMtK9uTaEclbTKY-23" value="message" style="shape=umlActor;verticalLabelPosition=bottom;verticalAlign=top;html=1;outlineConnect=0;" vertex="1" parent="1">
          <mxGeometry x="740" y="210" width="30" height="60" as="geometry" />
        </mxCell>
        <mxCell id="5mHROcMtK9uTaEclbTKY-29" value="" style="endArrow=none;html=1;rounded=0;entryX=0;entryY=0.3333333333333333;entryDx=0;entryDy=0;entryPerimeter=0;exitX=1;exitY=0.5;exitDx=0;exitDy=0;" edge="1" parent="1" source="5mHROcMtK9uTaEclbTKY-28" target="5mHROcMtK9uTaEclbTKY-23">
          <mxGeometry width="50" height="50" relative="1" as="geometry">
            <mxPoint x="390" y="360" as="sourcePoint" />
            <mxPoint x="440" y="310" as="targetPoint" />
          </mxGeometry>
        </mxCell>
        <mxCell id="5mHROcMtK9uTaEclbTKY-30" value="" style="endArrow=none;html=1;rounded=0;entryX=0;entryY=0;entryDx=0;entryDy=0;exitX=1;exitY=0.3333333333333333;exitDx=0;exitDy=0;exitPerimeter=0;" edge="1" parent="1" source="5mHROcMtK9uTaEclbTKY-2" target="5mHROcMtK9uTaEclbTKY-28">
          <mxGeometry width="50" height="50" relative="1" as="geometry">
            <mxPoint x="130" y="120" as="sourcePoint" />
            <mxPoint x="390" y="195" as="targetPoint" />
          </mxGeometry>
        </mxCell>
      </root>
    </mxGraphModel>
  </diagram>
</mxfile>
